<?xml version="1.0" encoding="utf-8" ?>
<svg baseProfile="full" height="200mm" version="1.1" viewBox="0,0,200,200" width="200mm" xmlns="http://www.w3.org/2000/svg" xmlns:ev="http://www.w3.org/2001/xml-events" xmlns:xlink="http://www.w3.org/1999/xlink"><defs /><rect fill="#1a1a1a" height="200" width="200" x="0" y="0" /><rect fill="#1a1a1a" height="200" width="180" x="10" y="0" /><text alignment-baseline="middle" fill="#e1ed5e" style="dominant-baseline: central; font-size:9.0px; font-family:Arial;" text-anchor="middle" x="100.0" y="100.0">2022</text><line stroke="#e1ed5e" stroke-width="0.3" x1="100.0" x2="100.0" y1="15.0" y2="10.0" /><path d="M 100.0 14.0 a86.0,86.0 0 0,1 42.46469731375804,11.215312516191453" fill="none" id="id1" stroke="none" /><text fill="#e1ed5e" style="font-size:6.75px; font-family:Arial;" text-anchor="middle"><textPath startOffset="22.20632615414155" xlink:href="#id1">January</textPath></text><line stroke="#e1ed5e" stroke-width="0.3" x1="143.23703022742887" x2="145.7803849466894" y1="26.81831364943548" y2="22.513508569990506" /><path d="M 143.74570117128098 25.957352633546492 a86.0,86.0 0 0,1 28.547481713284135,27.462654790039103" fill="none" id="id2" stroke="none" /><text fill="#e1ed5e" style="font-size:6.75px; font-family:Arial;" text-anchor="middle"><textPath startOffset="19.985693538727396" xlink:href="#id2">February</textPath></text><line stroke="#e1ed5e" stroke-width="0.3" x1="172.23445277983987" x2="176.4835382374775" y1="55.19839476539836" y2="52.563006222186495" /><path d="M 173.08426987136738 54.67131705675599 a86.0,86.0 0 0,1 12.851231095245387,41.99856678651699" fill="none" id="id3" stroke="none" /><text fill="#e1ed5e" style="font-size:6.75px; font-family:Arial;" text-anchor="middle"><textPath startOffset="22.20632615414155" xlink:href="#id3">March</textPath></text><line stroke="#e1ed5e" stroke-width="0.3" x1="184.98032266829074" x2="189.97916517819016" y1="98.17113171792111" y2="98.06355123074" /><path d="M 185.9800911702706 98.14961562048488 a86.0,86.0 0 0,1 -9.607161424134198,41.387399972396054" fill="none" id="id4" stroke="none" /><text fill="#e1ed5e" style="font-size:6.75px; font-family:Arial;" text-anchor="middle"><textPath startOffset="21.466115282336823" xlink:href="#id4">April</textPath></text><line stroke="#e1ed5e" stroke-width="0.3" x1="174.80103733775053" x2="179.2010983576182" y1="140.37084112569926" y2="142.7455964860345" /><path d="M 175.68104954172406 140.8457921977663 a86.0,86.0 0 0,1 -30.038265399797805,32.042727171017184" fill="none" id="id5" stroke="none" /><text fill="#e1ed5e" style="font-size:6.75px; font-family:Arial;" text-anchor="middle"><textPath startOffset="22.206326154141568" xlink:href="#id5">May</textPath></text><line stroke="#e1ed5e" stroke-width="0.3" x1="143.8653032363475" x2="146.44561519142675" y1="172.8068346515853" y2="177.08958963109032" /><path d="M 144.38136562736335 173.6633856474863 a86.0,86.0 0 0,1 -40.68145358897372,12.25698825130547" fill="none" id="id6" stroke="none" /><text fill="#e1ed5e" style="font-size:6.75px; font-family:Arial;" text-anchor="middle"><textPath startOffset="21.466115282336833" xlink:href="#id6">June</textPath></text><line stroke="#e1ed5e" stroke-width="0.3" x1="102.19456741930631" x2="102.32365962044197" y1="184.97166512339345" y2="189.96999836594603" /><path d="M 102.22038585953345 185.97133177190398 a86.0,86.0 0 0,1 -42.740103519485714,-10.115201625700543" fill="none" id="id7" stroke="none" /><text fill="#e1ed5e" style="font-size:6.75px; font-family:Arial;" text-anchor="middle"><textPath startOffset="22.20632615414155" xlink:href="#id7">July</textPath></text><line stroke="#e1ed5e" stroke-width="0.3" x1="58.666819895761336" x2="56.23545636021788" y1="174.27360380694188" y2="178.64263932499728" /><path d="M 58.180547188652646 175.14741091055294 a86.0,86.0 0 0,1 -31.652253787137756,-30.449443065178592" fill="none" id="id8" stroke="none" /><text fill="#e1ed5e" style="font-size:6.75px; font-family:Arial;" text-anchor="middle"><textPath startOffset="22.20632615414155" xlink:href="#id8">August</textPath></text><line stroke="#e1ed5e" stroke-width="0.3" x1="26.63291911575756" x2="22.317208475507996" y1="142.92168965132927" y2="145.44649492493687" /><path d="M 25.769776987707644 143.4266507060508 a86.0,86.0 0 0,1 -11.730757126820373,-40.83630448921669" fill="none" id="id9" stroke="none" /><text fill="#e1ed5e" style="font-size:6.75px; font-family:Arial;" text-anchor="middle"><textPath startOffset="21.46611528233685" xlink:href="#id9">September</textPath></text><line stroke="#e1ed5e" stroke-width="0.3" x1="15.007084014347285" x2="10.007500721073583" y1="101.09737516637583" y2="101.16192664675087" /><path d="M 14.007167355692545 101.11028546245083 a86.0,86.0 0 0,1 10.666146001902534,-42.60595125391555" fill="none" id="id10" stroke="none" /><text fill="#e1ed5e" style="font-size:6.75px; font-family:Arial;" text-anchor="middle"><textPath startOffset="22.20632615414155" xlink:href="#id10">October</textPath></text><path d="M 80.38941819471856 92.48833698450439 l -8.43913927417047 -3.2325389933780753 a30.037055938332806,30.037055938332806 0 0,0 0.18909964464819287,-0.48123796954541387 l 8.382246079640586 3.377325967819252" fill="#ff2b04" stroke="none" /><path d="M 80.803312248108 91.48605970444005 l -11.012031631374443 -4.883956078990715 a33.046487771624626,33.046487771624626 0 0,0 0.23509850978950722,-0.5180084028327839 l 10.926330804621584 5.072786490665569" fill="#ff5908" stroke="none" /><path d="M 80.95270993114464 91.15688171328213 l -13.580615477405013 -6.305095824077042 a35.97288716633924,35.97288716633924 0 0,0 0.2655857809045768,-0.5593913874035925 l 13.470071502658685 6.537929627121167" fill="#ff850c" stroke="none" /><path d="M 81.43458229118936 90.18545643968196 l -11.073735193339392 -5.854091630746241 a33.525893179864525,33.525893179864525 0 0,0 0.2741011583547339,-0.5078678176799554 l 10.971325935766187 6.043840431758669" fill="#ff6108" stroke="none" /><line stroke="#e1ed5e" stroke-width="0.3" x1="26.266209847984243" x2="21.928928074336255" y1="57.711370442889674" y2="55.22380399835377" /><path d="M 25.398753493254645 57.213857153982495 a86.0,86.0 0 0,1 29.58750427330803,-30.492523968695096" fill="none" id="id11" stroke="none" /><text fill="#e1ed5e" style="font-size:6.75px; font-family:Arial;" text-anchor="middle"><textPath startOffset="21.46611528233685" xlink:href="#id11">November</textPath></text><path d="M 81.78341655067845 89.55222093294921 l -5.457907943515743 -3.1302805227331336 a27.291853087198927,27.291853087198927 0 0,0 0.23723160699263612,-0.40550571610566954 l 5.403216662052782 3.223765651192695" fill="#ff0000" stroke="none" /><path d="M 82.15384107792192 88.93136811851018 l -25.925572945380267 -16.079685522362873 a51.50723879744477,51.50723879744477 0 0,0 0.47379891091598175,-0.7494360940145176 l 25.644946438218323 16.523569264091606" fill="#a9ff21" stroke="none" /><path d="M 82.7489923806493 88.02491185347247 l -12.462051296683843 -8.650750498593398 a36.170306744100245,36.170306744100245 0 0,0 0.3594422169198283,-0.5084055250347079 l 12.311296459960136 8.863982523959892" fill="#ff880c" stroke="none" /><path d="M 82.95767976084542 87.72973835380427 l -14.550003424290702 -10.475824093418588 a38.928900972539296,38.928900972539296 0 0,0 0.3962172186469536,-0.5404398409565832 l 14.367523593130114 10.724726378046672" fill="#ffaf10" stroke="none" /><path d="M 83.6137871275137 86.86637796730984 l -10.326285007028517 -8.276563067959815 a34.23380739863998,34.23380739863998 0 0,0 0.37249888631217076,-0.4566395898546199 l 10.182287628639955 8.453086827422517" fill="#ff6b09" stroke="none" /><path d="M 83.84228863543731 86.58626213691792 l -16.199840826055922 -13.448712714410492 a42.05475519839389,42.05475519839389 0 0,0 0.4671870495324993,-0.5530021082654708 l 15.965943163036298 13.72557377230508" fill="#ffdb14" stroke="none" /><path d="M 84.07557802195018 86.31012108654704 l -24.645265054264534 -21.18699786076341 a53.50043027325863,53.50043027325863 0 0,0 0.6063589384343718,-0.6931730863715618 l 24.27691425225232 21.608086503337915" fill="#91ff24" stroke="none" /><path d="M 84.80347519578584 85.50635884689758 l -12.014475028404268 -11.45877047206953 a37.60274166936661,37.60274166936661 0 0,0 0.45075970766283024,-0.4645475016434768 l 11.81545105703832 11.66388216926313" fill="#ff9d0e" stroke="none" /><path d="M 85.05521093208273 85.24692304244772 l -21.031840002235672 -20.762043057403364 a50.55335388407062,50.55335388407062 0 0,0 0.6166647355510285,-0.6140165812011649 l 20.67133946651733 21.12099548925464" fill="#b4ff20" stroke="none" /><path d="M 85.31137513191541 84.99185889309783 l -20.67874618242411 -21.128563320720552 a50.563943100926465,50.563943100926465 0 0,0 0.6272740212771016,-0.6034371114800096 l 20.31198891753458 21.481383518962875" fill="#b4ff20" stroke="none" /><path d="M 85.83668400450813 84.49514656593479 l -42.15042261567034 -46.14287537239827 a83.49658450117329,83.49658450117329 0 0,0 1.0695078001942917,-0.9602146629244297 l 41.34990382788008 46.861589044091986" fill="#4cd7ff" stroke="none" /><path d="M 86.37877921826538 84.01681056812374 l -9.616004639055454 -11.283454411804323 a35.82511007316986,35.82511007316986 0 0,0 0.47279329735187053,-0.39595078972485703 l 9.420353804744472 11.447306358922992" fill="#ff830c" stroke="none" /><path d="M 87.80319425747018 82.90503203632743 l -17.186250273995768 -24.08814275242181 a50.590637366259465,50.590637366259465 0 0,0 0.713252969179273,-0.49967928590452704 l 16.769066165232832 24.380406881090277" fill="#b4ff20" stroke="none" /><path d="M 88.09926311788651 82.69761687909137 l -25.099925211265525 -36.49257408288678 a65.29124302620218,65.29124302620218 0 0,0 0.9314738050958066,-0.6289352712101683 l 24.46804671176318 36.91922126639562" fill="#34ff58" stroke="none" /><path d="M 88.70189139769569 82.29822771554957 l -8.298099510670125 -13.00138572766355 a36.42382852369921,36.42382852369921 0 0,0 0.531407783663765,-0.3327675053788073 l 8.07307257463412 13.142297574365287" fill="#ff8b0c" stroke="none" /><line stroke="#e1ed5e" stroke-width="0.3" x1="56.762969772571076" x2="54.21961505331055" y1="26.818313649435495" y2="22.513508569990535" /><path d="M 56.25429882871897 25.957352633546506 a86.0,86.0 0 0,1 42.265352541879196,-11.944610805530505" fill="none" id="id12" stroke="none" /><text fill="#e1ed5e" style="font-size:6.75px; font-family:Arial;" text-anchor="middle"><textPath startOffset="22.20632615414155" xlink:href="#id12">December</textPath></text><path d="M 89.3179101791058 81.91981866633112 l -9.41172328470815 -15.929997453961903 a39.50257695757946,39.50257695757946 0 0,0 0.5884064356367146,-0.34084298652824363 l 9.136120116606117 16.089644597880195" fill="#ffb811" stroke="none" /><path d="M 89.94658935756843 81.56283822128135 l -17.271826624046774 -31.6751670659411 a57.07814024567246,57.07814024567246 0 0,0 0.8666498929659407,-0.46293435883593714 l 16.72403168455253 31.967780151278788" fill="#67ff28" stroke="none" /><path d="M 90.26544431104013 81.39251694778311 l -10.99972998392697 -21.02584810183079 a44.72931410977914,44.72931410977914 0 0,0 0.6852946529604462,-0.351034538235068 l 10.63617484337776 21.212075165378362" fill="#ffff18" stroke="none" /><path d="M 90.91171255644093 81.06846463323043 l -16.63668849459794 -34.65538018877497 a59.441836325737924,59.441836325737924 0 0,0 0.9262220955306606,-0.4348736931340273 l 16.03768818776767 34.936618864549004" fill="#4dff2c" stroke="none" /><path d="M 91.23893434514133 80.91482961587045 l -9.991235681631796 -21.764981891921863 a44.94867902832219,44.94867902832219 0 0,0 0.7059465759446738,-0.3167376507776069 l 9.615106987220349 21.933739873216002" fill="#fcff18" stroke="none" /><path d="M 91.56875222667455 80.76684994638697 l -9.055384925825008 -20.656916005081925 a43.55455996014705,43.55455996014705 0 0,0 0.6892327474787033,-0.2950934928810884 l 8.698468420555995 20.8097290259258" fill="#ffef16" stroke="none" /><path d="M 92.57280143429618 80.3572730644239 l -12.062147253279218 -31.900785021010257 a55.10506533224213,55.10506533224213 0 0,0 0.8901243857216089,-0.3278403233299735 l 11.511240541785039 32.10368861214655" fill="#7eff26" stroke="none" /><path d="M 93.94186890950719 79.89281104454417 l -10.559262824213857 -35.04663231371523 a57.602793171062416,57.602793171062416 0 0,0 0.9518444150863411,-0.2778694860561517 l 9.954428191404094 35.22320012869008" fill="#61ff29" stroke="none" /><path d="M 94.63758080256005 79.69619591428918 l -16.08725759231985 -60.91141225713247 a84.0,84.0 0 0,0 1.4011644452600023,-0.35718801532454725 l 15.036384258374849 61.17930326862588" fill="#4dd2ff" stroke="none" /><path d="M 95.692805502759 79.44645832069477 l -3.059844561222281 -14.601300861050616 a35.91846626077088,35.91846626077088 0 0,0 0.6062243315827877,-0.12160289785309493 l 2.8080538201723573 14.65180771498092" fill="#ff840c" stroke="none" /><path d="M 96.04723909329186 79.375362276772 l -6.684765073655762 -34.879635060916584 a56.51443405254671,56.51443405254671 0 0,0 0.9569908798663999,-0.17488396636382433 l 6.083379072686469 34.989534508631145" fill="#6dff28" stroke="none" /><path d="M 97.11714578562143 79.19881850522333 l -3.250100761317873 -23.45104219120499 a44.6751881684686,44.6751881684686 0 0,0 0.7626379504540955,-0.09901229382467854 l 2.8459480823559193 23.503512808193808" fill="#fffe18" stroke="none" /></svg>